<svg xmlns="http://www.w3.org/2000/svg" width="319.844" height="760.401" viewBox="0 0 319.844 760.401">
  <g id="Group_2" data-name="Group 2" transform="translate(-263.194 979.277) rotate(-90)">
    <path id="Path_17" data-name="Path 17" d="M791.405,449.224l2.325-.459q-.685-3.47-1.309-6.962l-2.332.415Q790.716,445.733,791.405,449.224Z" transform="translate(-571.214 -176.966)" fill="#ff6500"/>
    <path id="Path_18" data-name="Path 18" d="M530.5,756.965q3.862,0,7.705-.075l-.046-2.369c-4.682.091-9.4.1-14.085.022l-.038,2.369Q527.256,756.964,530.5,756.965Zm-20.626-.54.125-2.366c-4.685-.246-9.41-.582-14.046-1l-.21,2.36C500.4,755.839,505.155,756.177,509.869,756.425Zm42.488-.068c4.7-.263,9.455-.614,14.128-1.046l-.217-2.359c-4.645.429-9.37.78-14.043,1.041Zm-70.707-2.451.3-2.35c-4.662-.59-9.351-1.27-13.936-2.022l-.383,2.339c4.613.755,9.33,1.439,14.021,2.033Zm98.917-.157c4.68-.607,9.4-1.306,14.016-2.078l-.391-2.336c-4.591.767-9.278,1.462-13.929,2.065Zm-126.876-4.422L454.16,747c-4.6-.928-9.222-1.951-13.749-3.041l-.554,2.3c4.554,1.1,9.209,2.125,13.834,3.059Zm154.822-.249c4.621-.948,9.272-1.993,13.825-3.1l-.562-2.3c-4.524,1.1-9.147,2.143-13.739,3.086ZM426.145,742.7l.638-2.281c-4.493-1.258-9.031-2.62-13.487-4.048l-.723,2.255c4.483,1.438,9.048,2.809,13.57,4.074Zm209.895-.337c4.528-1.284,9.1-2.673,13.594-4.129l-.73-2.253c-4.466,1.447-9.011,2.828-13.511,4.1ZM399.2,734.067,400,731.84c-4.377-1.583-8.792-3.272-13.121-5.021l-.887,2.2c4.355,1.759,8.8,3.459,13.2,5.052Zm263.863-.461c4.427-1.618,8.883-3.341,13.244-5.123l-.9-2.193c-4.334,1.769-8.762,3.482-13.162,5.09ZM372.988,723.481l.967-2.163c-4.263-1.907-8.544-3.917-12.724-5.976l-1.046,2.126c4.2,2.07,8.512,4.093,12.8,6.014Zm316.36-.6c4.292-1.941,8.606-3.987,12.823-6.083l-1.055-2.121c-4.19,2.083-8.478,4.117-12.744,6.045ZM347.609,710.985l1.124-2.084c-4.117-2.218-8.241-4.538-12.255-6.9l-1.2,2.043c4.039,2.372,8.188,4.707,12.329,6.939Zm367.148-.742c4.138-2.251,8.288-4.609,12.335-7.008l-1.208-2.038c-4.022,2.385-8.146,4.728-12.259,6.965ZM323.206,696.656l1.273-2c-3.922-2.5-7.865-5.118-11.721-7.78l-1.346,1.95c3.878,2.678,7.846,5.311,11.791,7.826Zm415.952-.877c3.956-2.546,7.92-5.2,11.783-7.891l-1.354-1.943c-3.84,2.674-7.78,5.312-11.71,7.843ZM299.91,680.574l1.416-1.9c-3.737-2.786-7.481-5.686-11.126-8.618l-1.485,1.846c3.666,2.951,7.433,5.868,11.194,8.671Zm462.513-1c3.751-2.822,7.51-5.758,11.17-8.729L772.1,669c-3.638,2.951-7.373,5.87-11.1,8.675ZM277.842,662.826l1.55-1.79c-3.53-3.058-7.053-6.224-10.472-9.41l-1.615,1.733c3.437,3.207,6.981,6.391,10.534,9.468Zm506.593-1.115c3.546-3.1,7.079-6.3,10.5-9.518l-1.623-1.725c-3.4,3.2-6.911,6.38-10.436,9.46Zm-527.32-18.2,1.677-1.672c-3.31-3.319-6.594-6.735-9.76-10.15l-1.737,1.61C250.481,636.736,253.785,640.173,257.115,643.511ZM805.077,642.3c3.3-3.338,6.589-6.788,9.776-10.254l-1.744-1.6c-3.167,3.445-6.435,6.874-9.716,10.192ZM237.851,622.731l1.8-1.545c-3.056-3.548-6.084-7.2-9-10.841l-1.851,1.481c2.933,3.666,5.98,7.337,9.054,10.905Zm586.394-1.288c3.049-3.573,6.077-7.252,9-10.937l-1.856-1.471c-2.9,3.662-5.912,7.319-8.944,10.87Zm-604.1-20.85,1.9-1.411c-2.8-3.772-5.549-7.631-8.184-11.471l-1.952,1.339c2.65,3.864,5.42,7.747,8.233,11.543Zm621.689-1.344c2.783-3.787,5.533-7.676,8.174-11.559l-1.959-1.332c-2.624,3.86-5.357,7.725-8.123,11.49ZM204.1,577.21l2-1.268c-2.5-3.943-4.963-8-7.323-12.044l-2.047,1.194c2.375,4.074,4.855,8.15,7.37,12.118Zm653.646-1.369c2.5-3.976,4.953-8.054,7.3-12.121L863,562.536c-2.335,4.041-4.777,8.094-7.258,12.047ZM189.815,552.708l2.089-1.117c-2.215-4.142-4.374-8.366-6.42-12.555l-2.128,1.039C185.413,544.291,187.586,548.541,189.815,552.708ZM871.9,551.34c2.2-4.15,4.348-8.4,6.39-12.618l-2.133-1.032c-2.029,4.2-4.166,8.416-6.351,12.542Zm-694.54-24.129,2.165-.96c-1.894-4.274-3.738-8.649-5.479-13l-2.2.879C173.6,518.509,175.457,522.911,177.364,527.212Zm706.851-1.335c1.888-4.3,3.719-8.692,5.442-13.047l-2.2-.872c-1.712,4.33-3.532,8.693-5.408,12.968ZM166.826,500.848l2.23-.8c-1.579-4.417-3.094-8.918-4.5-13.378l-2.258.715c1.418,4.486,2.943,9.015,4.533,13.461Zm727.787-1.256c1.567-4.433,3.073-8.957,4.475-13.445l-2.261-.705c-1.393,4.46-2.889,8.955-4.447,13.362Zm-736.35-25.829,2.283-.631c-1.24-4.49-2.415-9.079-3.493-13.641l-2.306.546C155.833,464.626,157.015,469.245,158.263,473.763Zm744.8-1.216c1.233-4.53,2.4-9.146,3.465-13.722l-2.307-.537c-1.059,4.547-2.218,9.135-3.443,13.636Z" transform="translate(68.45 -173.927)" fill="#ff6500"/>
    <path id="Path_19" data-name="Path 19" d="M153.443,447.985q.677-3.494,1.291-7.011l-2.334-.407q-.609,3.494-1.283,6.967Z" transform="translate(824.543 -177.194)" fill="#ff6500"/>
    <path id="Path_21" data-name="Path 21" d="M500.465,578.946c2.837,0,5.7-.058,8.51-.171l-.1-2.366c-4.661.188-9.426.221-14.1.091l-.065,2.369Q497.579,578.947,500.465,578.946ZM480.476,578l.224-2.357c-4.664-.444-9.369-1.057-13.984-1.819l-.386,2.336c4.668.773,9.427,1.391,14.145,1.84Zm42.724-.28c4.711-.512,9.461-1.195,14.118-2.029l-.418-2.332c-4.6.824-9.3,1.5-13.958,2.006Zm-70.855-4.37.547-2.3c-4.56-1.083-9.136-2.335-13.6-3.725l-.7,2.262c4.515,1.4,9.144,2.673,13.757,3.768Zm98.92-.655c4.6-1.155,9.213-2.486,13.711-3.952l-.734-2.253c-4.447,1.45-9.007,2.766-13.554,3.908ZM425.124,564.87l.859-2.207c-4.359-1.7-8.719-3.569-12.957-5.564l-1.01,2.142c4.288,2.019,8.7,3.914,13.107,5.629Zm153.257-1.021c4.394-1.778,8.78-3.731,13.034-5.806l-1.039-2.128c-4.205,2.051-8.54,3.981-12.884,5.739ZM399.327,552.723l1.154-2.068c-4.092-2.285-8.153-4.739-12.072-7.292l-1.293,1.985C391.08,547.931,395.188,550.412,399.327,552.723Zm204.691-1.368c4.105-2.364,8.181-4.9,12.112-7.539l-1.32-1.966c-3.887,2.608-7.916,5.116-11.975,7.453Zm-228.58-14.2,1.427-1.89c-3.744-2.826-7.433-5.811-10.964-8.873l-1.552,1.79C367.92,531.278,371.652,534.3,375.438,537.153ZM627.7,535.466c3.75-2.906,7.442-5.976,10.97-9.122l-1.576-1.767c-3.488,3.109-7.137,6.143-10.845,9.018ZM353.9,518.472l1.67-1.679c-3.322-3.3-6.57-6.764-9.655-10.282l-1.781,1.561c3.121,3.559,6.406,7.057,9.766,10.4ZM648.991,516.5c3.312-3.383,6.551-6.924,9.627-10.527l-1.8-1.538c-3.04,3.562-6.243,7.064-9.517,10.409ZM335.1,497.031l1.883-1.436c-2.838-3.721-5.585-7.589-8.166-11.5l-1.978,1.3C329.448,489.356,332.225,493.269,335.1,497.031ZM667.5,494.812c2.824-3.806,5.55-7.757,8.1-11.742l-2-1.277c-2.522,3.938-5.217,7.844-8.01,11.607ZM319.4,473.228l2.061-1.166c-2.3-4.075-4.495-8.283-6.514-12.51l-2.137,1.021c2.042,4.274,4.259,8.532,6.59,12.654ZM682.883,470.8c2.278-4.159,4.437-8.445,6.418-12.739l-2.151-.992c-1.958,4.245-4.093,8.481-6.344,12.593Z" transform="translate(98.481 -174.151)" fill="#ff6500"/>
    <path id="Path_22" data-name="Path 22" d="M308.286,447.9c.838-2.208,1.652-4.471,2.42-6.725l-2.243-.763c-.759,2.228-1.564,4.465-2.392,6.647Z" transform="translate(485.051 -177.222)" fill="#ff6500"/>
  </g>
</svg>
