<svg xmlns="http://www.w3.org/2000/svg" width="28" height="28" viewBox="0 0 28 28">
  <g id="Iconly_Bold_Send" data-name="Iconly/Bold/Send" transform="translate(0 28) rotate(-90)">
    <g id="Send" transform="translate(2.333 2.333)">
      <path id="Send-2" data-name="Send" d="M22.675.679A2.255,2.255,0,0,0,20.422.092L1.643,5.553A2.239,2.239,0,0,0,.029,7.327,2.629,2.629,0,0,0,1.2,9.781L7.07,13.39a1.522,1.522,0,0,0,1.878-.225L15.672,6.4a.856.856,0,0,1,1.237,0,.89.89,0,0,1,0,1.245L10.173,14.41A1.544,1.544,0,0,0,9.948,16.3l3.588,5.931a2.229,2.229,0,0,0,1.937,1.1,2.425,2.425,0,0,0,.292-.012,2.274,2.274,0,0,0,1.9-1.621L23.235,2.946a2.292,2.292,0,0,0-.56-2.267" fill="#026451"/>
    </g>
  </g>
</svg>
